<?xml version="1.0" encoding="UTF-8" standalone="no"?>
<!DOCTYPE svg PUBLIC "-//W3C//DTD SVG 20010904//EN"
              "http://www.w3.org/TR/2001/REC-SVG-20010904/DTD/svg10.dtd">

<svg xmlns="http://www.w3.org/2000/svg"
     width="618.56mm" height="252.999mm"
     viewBox="0 0 1753 717">
  <path id="White"
        fill="white" stroke="none" stroke-width="1"
        d="M 831.94,457.81
           C 831.94,485.26 825.28,521.78 850.50,539.00
             867.16,550.37 903.81,548.00 924.00,548.00
             954.00,548.00 1025.06,556.44 1037.62,530.75
             1043.72,520.67 1045.25,502.56 1045.69,491.00
             1046.19,477.83 1045.11,456.88 1036.69,446.19
             1025.62,426.69 975.94,429.12 960.56,428.56
             960.56,428.56 849.00,422.50 849.00,422.50
             796.33,417.24 736.76,411.45 699.98,367.96
             672.93,335.97 663.49,279.94 663.01,239.00
             662.38,185.41 666.13,114.90 705.52,74.28
             733.05,45.88 775.02,33.90 813.00,28.61
             876.85,19.72 946.23,22.70 1011.00,23.00
             1058.17,23.22 1122.92,34.64 1157.88,68.28
             1208.06,116.53 1203.00,184.67 1203.00,248.00
             1203.00,248.00 1033.69,246.88 1033.69,246.88
             1033.69,223.56 1040.18,192.18 1019.62,176.38
             1006.04,165.92 992.44,164.75 982.88,164.75
             982.88,164.75 918.64,162.11 895.12,164.00
             856.88,168.50 841.18,171.29 840.04,218.00
             839.87,225.27 839.05,236.87 840.75,243.88
             849.70,280.73 881.62,276.88 916.12,279.50
             916.12,279.50 1005.00,284.12 1005.00,284.12
             1005.00,284.12 1029.00,286.74 1029.00,286.74
             1092.96,291.41 1169.32,300.50 1201.87,365.00
             1218.75,405.12 1218.75,430.62 1218.94,470.75
             1218.94,470.75 1218.27,521.00 1218.27,521.00
             1215.27,564.61 1210.56,607.38 1178.48,640.73
             1140.22,680.52 1084.22,688.61 1032.00,692.27
             1032.00,692.27 999.00,695.00 999.00,695.00
             937.88,695.29 876.69,696.72 816.00,689.46
             776.10,684.69 734.47,673.14 705.28,643.73
             658.25,596.34 663.00,519.48 663.00,458.00
             663.00,458.00 831.94,457.81 831.94,457.81 Z
           M 234.75,28.25
           C 234.75,28.25 473.25,27.50 473.25,27.50
             473.25,27.50 687.00,689.00 687.00,689.00
             687.00,689.00 24.00,689.00 24.00,689.00
             24.00,689.00 234.75,28.25 234.75,28.25 Z
           M 1257.00,26.00
           C 1257.00,26.00 1722.00,26.00 1722.00,26.00
             1722.00,26.00 1722.00,176.00 1722.00,176.00
             1722.00,176.00 1434.00,176.00 1434.00,176.00
             1434.00,176.00 1434.00,296.00 1434.00,296.00
             1434.00,296.00 1704.00,296.00 1704.00,296.00
             1704.00,296.00 1704.00,446.00 1704.00,446.00
             1704.00,446.00 1434.00,446.00 1434.00,446.00
             1434.00,446.00 1434.00,689.00 1434.00,689.00
             1434.00,689.00 1257.00,689.00 1257.00,689.00
             1257.00,689.00 1257.00,26.00 1257.00,26.00 Z
           M 1188.00,233.00
           C 1188.00,233.00 1188.56,163.25 1184.44,153.69
             1181.52,140.65 1176.67,121.77 1170.30,110.00
             1140.91,55.67 1078.04,38.69 1020.00,38.01
             1020.00,38.01 861.00,38.00 861.00,38.00
             816.73,38.53 749.83,51.69 717.52,83.55
             676.68,123.81 677.39,194.80 678.01,248.00
             678.42,282.90 688.72,332.05 711.98,358.88
             750.74,403.60 824.33,406.51 879.00,410.26
             879.00,410.26 921.00,413.01 921.00,413.01
             921.00,413.01 954.94,415.06 954.94,415.06
             985.27,416.38 1032.99,411.89 1051.88,440.38
             1061.03,454.18 1060.52,475.90 1060.50,491.75
             1060.48,506.31 1059.48,524.43 1052.44,537.69
             1042.28,556.81 1025.25,560.24 1005.38,563.56
             1005.38,563.56 896.06,564.12 896.06,564.12
             870.68,564.09 841.21,561.53 826.69,537.50
             819.86,526.20 817.66,510.21 817.31,497.19
             817.13,490.20 817.31,472.06 817.31,472.06
             817.31,472.06 677.44,471.88 677.44,471.88
             677.44,527.45 674.31,591.85 717.52,634.45
             744.48,661.04 782.89,670.07 819.00,675.26
             859.91,681.14 900.78,680.00 942.00,680.00
             984.68,680.00 1025.65,681.23 1068.00,674.24
             1103.50,668.38 1140.36,657.95 1166.45,631.48
             1206.66,590.70 1204.75,524.33 1204.12,470.56
             1203.93,454.22 1201.62,410.50 1196.88,395.00
             1172.75,315.95 1102.14,308.51 1032.00,301.50
             1032.00,301.50 969.00,296.12 969.00,296.12
             886.69,292.81 846.56,296.13 830.06,263.19
             824.82,252.72 824.66,229.75 825.12,218.00
             825.44,209.89 825.81,192.41 828.82,185.00
             847.48,139.10 932.18,150.45 972.82,150.64
             992.17,150.73 1016.10,153.11 1031.18,166.45
             1052.08,184.95 1047.00,207.79 1047.00,233.00
             1047.00,233.00 1188.00,233.00 1188.00,233.00 Z
           M 465.00,41.00
           C 465.00,41.00 243.75,42.50 243.75,42.50
             243.75,42.50 42.00,674.00 42.00,674.00
             42.00,674.00 162.75,674.38 162.75,674.38
             162.75,674.38 254.34,638.19 254.34,638.19
             254.34,638.19 78.00,638.00 78.00,638.00
             78.00,638.00 82.12,622.25 82.12,622.25
             82.12,622.25 291.38,622.34 291.38,622.34
             298.12,619.73 301.70,613.81 305.61,607.94
             321.19,584.54 314.54,561.95 311.16,536.00
             309.81,525.67 308.66,502.45 301.32,495.46
             298.12,492.42 292.41,489.22 292.41,489.22
             292.41,489.22 280.78,502.16 280.78,502.16
             280.78,502.16 289.41,508.44 289.41,508.44
             294.18,519.81 294.87,541.44 297.37,557.75
             298.30,566.41 300.73,578.09 297.37,586.54
             292.78,600.02 284.81,609.69 270.94,614.56
             270.94,614.56 251.62,593.38 251.62,593.38
             251.62,593.38 93.00,593.00 93.00,593.00
             93.00,593.00 97.50,578.00 97.50,578.00
             97.50,578.00 237.00,578.00 237.00,578.00
             237.00,578.00 228.00,545.00 228.00,545.00
             228.00,545.00 111.00,545.00 111.00,545.00
             111.00,545.00 114.00,530.00 114.00,530.00
             114.00,530.00 225.00,530.00 225.00,530.00
             219.87,502.77 206.03,456.90 207.97,431.00
             211.53,383.44 218.02,358.11 237.38,315.12
             242.14,304.54 258.18,276.84 270.94,260.94
             272.81,258.60 273.38,255.69 274.12,252.69
             276.23,248.95 282.00,245.19 285.56,243.88
             291.75,243.12 296.37,246.78 301.88,246.12
             314.44,242.75 322.50,238.25 351.56,246.12
             362.44,248.94 372.00,261.12 372.00,261.12
             372.00,261.12 399.00,265.62 414.94,274.44
             414.00,282.31 411.00,291.50 402.56,301.81
             393.05,307.15 375.52,299.51 364.28,309.95
             355.92,317.72 350.33,344.43 348.00,356.00
             348.00,356.00 364.88,359.56 364.88,359.56
             364.88,359.56 369.94,342.12 369.94,342.12
             426.29,354.98 517.78,390.45 545.25,444.12
             557.05,467.19 555.00,504.39 555.00,530.00
             555.00,530.00 600.00,530.00 600.00,530.00
             600.00,530.00 603.00,545.00 603.00,545.00
             603.00,545.00 553.83,544.87 553.83,544.87
             553.83,544.87 553.23,561.96 550.75,578.00
             550.75,578.00 613.50,578.00 613.50,578.00
             613.50,578.00 618.00,593.00 618.00,593.00
             618.00,593.00 548.48,593.00 548.48,593.00
             548.48,593.00 548.47,593.64 543.38,622.00
             543.38,622.00 628.12,622.00 628.12,622.00
             628.12,622.00 632.00,638.00 632.00,638.00
             632.00,638.00 540.25,638.00 540.25,638.00
             540.25,638.00 538.43,647.91 536.22,655.09
             536.22,655.09 561.52,666.17 579.13,674.39
             579.13,674.39 633.13,674.39 665.22,674.39
             665.22,674.39 465.00,41.00 465.00,41.00 Z
           M 1707.00,41.00
           C 1707.00,41.00 1272.00,41.00 1272.00,41.00
             1272.00,41.00 1272.00,674.38 1272.00,674.38
             1272.00,674.38 1419.00,674.38 1419.00,674.38
             1419.00,674.38 1419.00,431.00 1419.00,431.00
             1419.00,431.00 1689.00,431.00 1689.00,431.00
             1689.00,431.00 1689.00,308.00 1689.00,308.00
             1689.00,308.00 1419.00,308.00 1419.00,308.00
             1419.00,308.00 1419.00,164.00 1419.00,164.00
             1419.00,164.00 1707.00,164.00 1707.00,164.00
             1707.00,164.00 1707.00,41.00 1707.00,41.00 Z
           M 384.00,473.00
           C 384.00,473.00 385.13,507.21 382.72,524.00
             376.51,567.27 370.68,577.57 357.00,617.00
             362.66,616.80 375.75,616.62 375.75,616.62
             389.44,586.44 393.99,565.29 396.00,551.00
             396.00,551.00 431.06,565.62 431.06,565.62
             437.76,578.45 437.25,588.31 437.25,596.56
             434.85,606.71 427.33,612.94 423.00,623.00
             423.00,623.00 460.31,633.69 460.31,633.69
             452.06,598.25 450.19,563.56 444.94,554.56
             444.94,554.56 399.00,533.00 399.00,533.00
             403.50,513.12 401.44,475.06 401.44,475.06
             401.44,475.06 384.00,473.00 384.00,473.00 Z" />

  <path id="Blue"
        fill="#00558b" stroke="none" stroke-width="1"
        d="M 1188.00,233.00
           C 1188.00,233.00 1188.56,163.25 1184.44,153.69
             1181.52,140.65 1176.67,121.77 1170.30,110.00
             1140.91,55.67 1078.04,38.69 1020.00,38.01
             1020.00,38.01 861.00,38.00 861.00,38.00
             816.73,38.53 749.83,51.69 717.52,83.55
             676.68,123.81 677.39,194.80 678.01,248.00
             678.42,282.90 688.72,332.05 711.98,358.88
             750.74,403.60 824.33,406.51 879.00,410.26
             879.00,410.26 921.00,413.01 921.00,413.01
             921.00,413.01 954.94,415.06 954.94,415.06
             985.27,416.38 1032.99,411.89 1051.88,440.38
             1061.03,454.18 1060.52,475.90 1060.50,491.75
             1060.48,506.31 1059.48,524.43 1052.44,537.69
             1042.28,556.81 1025.25,560.24 1005.38,563.56
             1005.38,563.56 896.06,564.12 896.06,564.12
             870.68,564.09 841.21,561.53 826.69,537.50
             819.86,526.20 817.66,510.21 817.31,497.19
             817.13,490.20 817.31,472.06 817.31,472.06
             817.31,472.06 677.44,471.88 677.44,471.88
             677.44,527.45 674.31,591.85 717.52,634.45
             744.48,661.04 782.89,670.07 819.00,675.26
             859.91,681.14 900.78,680.00 942.00,680.00
             984.68,680.00 1025.65,681.23 1068.00,674.24
             1103.50,668.38 1140.36,657.95 1166.45,631.48
             1206.66,590.70 1204.75,524.33 1204.12,470.56
             1203.93,454.22 1201.62,410.50 1196.88,395.00
             1172.75,315.95 1102.14,308.51 1032.00,301.50
             1032.00,301.50 969.00,296.12 969.00,296.12
             886.69,292.81 846.56,296.13 830.06,263.19
             824.82,252.72 824.66,229.75 825.12,218.00
             825.44,209.89 825.81,192.41 828.82,185.00
             847.48,139.10 932.18,150.45 972.82,150.64
             992.17,150.73 1016.10,153.11 1031.18,166.45
             1052.08,184.95 1047.00,207.79 1047.00,233.00
             1047.00,233.00 1188.00,233.00 1188.00,233.00 Z
           M 465.00,41.00
           C 465.00,41.00 243.75,42.50 243.75,42.50
             243.75,42.50 42.00,674.00 42.00,674.00
             42.00,674.00 162.75,674.38 162.75,674.38
             162.75,674.38 254.34,638.19 254.34,638.19
             254.34,638.19 78.00,638.00 78.00,638.00
             78.00,638.00 82.12,622.25 82.12,622.25
             82.12,622.25 291.38,622.34 291.38,622.34
             298.12,619.73 301.70,613.81 305.61,607.94
             321.19,584.54 314.54,561.95 311.16,536.00
             309.81,525.67 308.66,502.45 301.32,495.46
             298.12,492.42 292.41,489.22 292.41,489.22
             292.41,489.22 280.78,502.16 280.78,502.16
             280.78,502.16 289.41,508.44 289.41,508.44
             294.18,519.81 294.87,541.44 297.37,557.75
             298.30,566.41 300.73,578.09 297.37,586.54
             292.78,600.02 284.81,609.69 270.94,614.56
             270.94,614.56 251.62,593.38 251.62,593.38
             251.62,593.38 93.00,593.00 93.00,593.00
             93.00,593.00 97.50,578.00 97.50,578.00
             97.50,578.00 237.00,578.00 237.00,578.00
             237.00,578.00 228.00,545.00 228.00,545.00
             228.00,545.00 111.00,545.00 111.00,545.00
             111.00,545.00 114.00,530.00 114.00,530.00
             114.00,530.00 225.00,530.00 225.00,530.00
             219.87,502.77 206.03,456.90 207.97,431.00
             211.53,383.44 218.02,358.11 237.38,315.12
             242.14,304.54 258.18,276.84 270.94,260.94
             272.81,258.60 273.38,255.69 274.12,252.69
             276.23,248.95 282.00,245.19 285.56,243.88
             291.75,243.12 296.37,246.78 301.88,246.12
             314.44,242.75 322.50,238.25 351.56,246.12
             362.44,248.94 372.00,261.12 372.00,261.12
             372.00,261.12 399.00,265.62 414.94,274.44
             414.00,282.31 411.00,291.50 402.56,301.81
             393.05,307.15 375.52,299.51 364.28,309.95
             355.92,317.72 350.33,344.43 348.00,356.00
             348.00,356.00 364.88,359.56 364.88,359.56
             364.88,359.56 369.94,342.12 369.94,342.12
             426.29,354.98 517.78,390.45 545.25,444.12
             557.05,467.19 555.00,504.39 555.00,530.00
             555.00,530.00 600.00,530.00 600.00,530.00
             600.00,530.00 603.00,545.00 603.00,545.00
             603.00,545.00 553.83,544.87 553.83,544.87
             553.83,544.87 553.23,561.96 550.75,578.00
             550.75,578.00 613.50,578.00 613.50,578.00
             613.50,578.00 618.00,593.00 618.00,593.00
             618.00,593.00 548.48,593.00 548.48,593.00
             548.48,593.00 548.47,593.64 543.38,622.00
             543.38,622.00 628.12,622.00 628.12,622.00
             628.12,622.00 632.00,638.00 632.00,638.00
             632.00,638.00 540.25,638.00 540.25,638.00
             540.25,638.00 538.43,647.91 536.22,655.09
             536.22,655.09 561.52,666.17 579.13,674.39
             579.13,674.39 633.13,674.39 665.22,674.39
             665.22,674.39 465.00,41.00 465.00,41.00 Z
           M 1707.00,41.00
           C 1707.00,41.00 1272.00,41.00 1272.00,41.00
             1272.00,41.00 1272.00,674.38 1272.00,674.38
             1272.00,674.38 1419.00,674.38 1419.00,674.38
             1419.00,674.38 1419.00,431.00 1419.00,431.00
             1419.00,431.00 1689.00,431.00 1689.00,431.00
             1689.00,431.00 1689.00,308.00 1689.00,308.00
             1689.00,308.00 1419.00,308.00 1419.00,308.00
             1419.00,308.00 1419.00,164.00 1419.00,164.00
             1419.00,164.00 1707.00,164.00 1707.00,164.00
             1707.00,164.00 1707.00,41.00 1707.00,41.00 Z
           M 384.00,473.00
           C 384.00,473.00 385.13,507.21 382.72,524.00
             376.51,567.27 370.68,577.57 357.00,617.00
             362.66,616.80 375.75,616.62 375.75,616.62
             389.44,586.44 393.99,565.29 396.00,551.00
             396.00,551.00 431.06,565.62 431.06,565.62
             437.76,578.45 437.25,588.31 437.25,596.56
             434.85,606.71 427.33,612.94 423.00,623.00
             423.00,623.00 460.31,633.69 460.31,633.69
             452.06,598.25 450.19,563.56 444.94,554.56
             444.94,554.56 399.00,533.00 399.00,533.00
             403.50,513.12 401.44,475.06 401.44,475.06
             401.44,475.06 384.00,473.00 384.00,473.00 Z" />
</svg>
